<svg width="151" height="32" viewBox="0 0 151 32" fill="none" xmlns="http://www.w3.org/2000/svg">
<path d="M35.5967 2.82422H40.4517V4.45322H37.7157V5.31421H40.0377V6.85022H37.7237V7.97421H40.5837V9.60321H35.6037L35.5967 2.82422Z" fill="white"/>
<path d="M42.0778 6.39221V2.82422H44.1958V6.2742C44.1448 6.72749 44.2461 7.18489 44.4838 7.57422C44.7593 7.85207 45.1314 8.01295 45.5225 8.02338C45.9137 8.03381 46.2938 7.89299 46.5838 7.63022C46.8604 7.235 46.9844 6.75285 46.9328 6.27319V2.82422H48.9698V6.3912C49.0317 7.18785 48.8096 7.9807 48.3428 8.62921C47.5603 9.32761 46.5467 9.71126 45.4979 9.70609C44.4491 9.70091 43.4394 9.30728 42.6638 8.6012C42.2268 7.95118 42.0204 7.17337 42.0778 6.39221Z" fill="white"/>
<path d="M56.7886 9.60519V2.82422H58.8256L60.7496 5.2962L62.6636 2.82422H64.6796V9.60422H62.5596V7.3942C62.5596 6.8602 62.5696 6.27119 62.5806 5.80319L62.5596 5.79422C62.2506 6.22522 61.9116 6.66621 61.5826 7.09421L60.6976 8.23721L59.7976 7.09421C59.4586 6.66421 59.1286 6.22322 58.8196 5.79422L58.7986 5.80319C58.8086 6.27119 58.8196 6.8622 58.8196 7.3942V9.60422L56.7886 9.60519Z" fill="white"/>
<path d="M66.4699 2.83087H71.3249V4.45987H68.5939V5.32086H70.9089V6.85687H68.5939V7.97986H71.4439V9.60886H66.4639L66.4699 2.83087ZM69.1549 2.16687H67.8439L68.7439 0.630859H70.3939L69.1549 2.16687Z" fill="white"/>
<path d="M73.0127 2.82386H75.1557C76.3734 2.73253 77.591 3.00284 78.6557 3.60086C79.0343 3.89847 79.3441 4.27445 79.5637 4.70301C79.7834 5.13157 79.9077 5.60258 79.9282 6.08371C79.9487 6.56485 79.865 7.04472 79.6826 7.49042C79.5002 7.93613 79.2236 8.33711 78.8717 8.66587C77.7918 9.39187 76.4943 9.72253 75.1987 9.60187H73.0177L73.0127 2.82386ZM75.2127 7.97287C76.5627 7.97287 77.1057 7.72988 77.4257 7.38288C77.693 7.05689 77.8289 6.64283 77.8067 6.22187C77.8278 5.95556 77.7803 5.68826 77.6686 5.44559C77.5569 5.20292 77.3848 4.99297 77.1687 4.83585C76.5637 4.52304 75.8819 4.38982 75.2037 4.45188H75.1317V7.97187L75.2127 7.97287Z" fill="white"/>
<path d="M81.4277 2.82422H83.5477V9.60422H81.4277V2.82422Z" fill="white"/>
<path d="M89.2556 2.71555C89.9598 2.71157 90.6583 2.84187 91.3137 3.09952V4.99054C90.6989 4.63829 90.006 4.44478 89.2976 4.42753C89.0416 4.39491 88.7815 4.41578 88.534 4.4888C88.2864 4.56183 88.0567 4.68543 87.8593 4.85178C87.6619 5.01813 87.5012 5.22363 87.3873 5.45527C87.2734 5.6869 87.2088 5.93967 87.1976 6.19754C87.2086 6.45986 87.2742 6.71699 87.3903 6.95249C87.5063 7.18799 87.6703 7.39667 87.8716 7.56516C88.073 7.73365 88.3073 7.85827 88.5595 7.931C88.8118 8.00373 89.0765 8.02297 89.3366 7.98752C90.0687 7.97282 90.7847 7.76999 91.4156 7.39853V9.29853C90.7285 9.57092 89.9948 9.70678 89.2556 9.69852C86.7556 9.69852 85.0776 8.18055 85.0776 6.21555C85.1096 5.70677 85.2447 5.20977 85.4748 4.75483C85.7048 4.29988 86.0249 3.89647 86.4157 3.5691C86.8065 3.24173 87.2597 2.99727 87.748 2.85053C88.2362 2.70379 88.7491 2.65787 89.2556 2.71555Z" fill="white"/>
<path d="M96.6939 2.7131C97.3654 2.80114 97.9973 3.08089 98.5139 3.51879C99.0305 3.9567 99.4099 4.53424 99.6068 5.18225C99.8036 5.83025 99.8095 6.52124 99.6238 7.17251C99.438 7.82378 99.0685 8.4077 98.5594 8.85437C98.0504 9.30103 97.4233 9.59151 96.7534 9.691C96.0836 9.7905 95.3992 9.69477 94.7823 9.41534C94.1654 9.13591 93.6421 8.68458 93.2751 8.11541C92.908 7.54624 92.7129 6.88335 92.7129 6.20611C92.741 5.71399 92.8668 5.23238 93.0829 4.78936C93.299 4.34634 93.6011 3.95077 93.9716 3.62567C94.3422 3.30057 94.7737 3.05245 95.2411 2.89578C95.7084 2.73911 96.2023 2.677 96.6939 2.7131ZM96.6939 7.9631C97.0379 7.94395 97.3687 7.82444 97.6455 7.61932C97.9223 7.4142 98.133 7.13245 98.2514 6.80892C98.3698 6.4854 98.3909 6.13428 98.312 5.79891C98.233 5.46355 98.0576 5.15866 97.8073 4.92193C97.5569 4.6852 97.2427 4.527 96.9035 4.46688C96.5643 4.40676 96.2149 4.44735 95.8984 4.58364C95.582 4.71994 95.3125 4.94598 95.1231 5.23379C94.9337 5.5216 94.8328 5.85859 94.8329 6.20312C94.8369 6.4421 94.8884 6.67787 94.9845 6.89672C95.0805 7.11557 95.2193 7.31311 95.3925 7.47778C95.5657 7.64245 95.77 7.77099 95.9935 7.85586C96.2169 7.94073 96.455 7.98024 96.6939 7.9721V7.9631Z" fill="white"/>
<path d="M35.5959 11.8723H41.2379C42.7834 11.794 44.3281 12.0428 45.7709 12.6023C46.5519 12.8908 47.2235 13.4158 47.6919 14.1042C48.1603 14.7925 48.4022 15.6099 48.3839 16.4423C48.3929 17.3371 48.1069 18.21 47.57 18.926C47.0332 19.6419 46.2754 20.1611 45.4139 20.4033L49.7009 26.5783H44.5009L40.9009 20.9923H40.1869V26.5783H35.5869L35.5959 11.8723ZM41.3339 18.1283C41.9522 18.1735 42.5723 18.0706 43.1429 17.8283C43.3528 17.7204 43.5263 17.553 43.6415 17.347C43.7568 17.141 43.8087 16.9056 43.7909 16.6703C43.8059 16.4107 43.7384 16.153 43.5981 15.9341C43.4579 15.7151 43.252 15.5461 43.0099 15.4513C42.3771 15.2427 41.7095 15.1601 41.0449 15.2083H40.1959V18.1333L41.3339 18.1283Z" fill="white"/>
<path d="M49.5723 11.8721H60.1093V15.4071H54.1693V17.2761H59.1923V20.6081H54.1693V23.0491H60.3763V26.5831H49.5763L49.5723 11.8721Z" fill="white"/>
<path d="M61.6039 21.8663C63.2533 22.7195 65.0632 23.2176 66.9169 23.3283C67.8539 23.3283 68.5249 23.0283 68.5249 22.2783C68.5249 21.2283 67.2309 21.2283 65.1759 20.5723C62.7199 19.7993 61.0239 18.7033 61.0239 16.3273C61.0239 13.4623 63.4579 11.6553 67.0749 11.6553C68.8854 11.6638 70.6763 12.0298 72.3449 12.7323V16.5883C70.7244 15.7413 68.9446 15.2429 67.1199 15.1253C66.2729 15.1253 65.6909 15.3683 65.6909 16.0253C65.6909 16.9793 66.9419 16.9793 68.9049 17.6093C71.4279 18.4223 73.1919 19.5593 73.1919 22.0373C73.1919 25.0023 70.6239 26.8103 66.8739 26.8103C65.0694 26.8064 63.2818 26.462 61.6049 25.7953L61.6039 21.8663Z" fill="white"/>
<path d="M74.061 11.8721H78.661V26.5721H74.061V11.8721Z" fill="white"/>
<path d="M80.3105 11.872H84.9605C87.6016 11.6757 90.2419 12.2621 92.5515 13.558C93.373 14.2037 94.0451 15.0193 94.5218 15.9491C94.9984 16.8789 95.2682 17.9008 95.3128 18.9447C95.3573 19.9886 95.1755 21.0297 94.7799 21.9968C94.3842 22.9638 93.784 23.8338 93.0205 24.547C91.4125 25.867 88.9346 26.578 85.0496 26.578H80.3156L80.3105 11.872ZM85.0876 23.044C88.0126 23.044 89.1955 22.516 89.8875 21.765C90.4677 21.0583 90.7627 20.1602 90.7145 19.247C90.7589 18.6705 90.655 18.0921 90.4128 17.567C90.1705 17.0419 89.798 16.5875 89.3306 16.247C88.0174 15.5694 86.5381 15.2807 85.0666 15.415H84.9166V23.053L85.0876 23.044Z" fill="white"/>
<path d="M96.3399 11.8723H106.88V15.4073H100.942V17.2763H105.967V20.6083H100.944V23.0493H107.151V26.5833H96.3509L96.3399 11.8723Z" fill="white"/>
<path d="M115.204 21.2569C114.304 20.1569 113.53 19.1649 112.726 18.1069L112.681 18.1279C112.704 19.3669 112.726 20.6279 112.726 21.8659V26.5789H108.306V11.8789H112.615L116.902 17.2009C117.802 18.3009 118.576 19.3009 119.38 20.3509L119.425 20.3299C119.402 19.0909 119.38 17.8299 119.38 16.5919V11.8789H123.8V26.5789H119.491L115.204 21.2569Z" fill="white"/>
<path d="M129.446 15.4083H124.312V11.8733H139.181V15.4083H134.045V26.5793H129.445L129.446 15.4083Z" fill="white"/>
<path d="M139.692 11.8723H150.23V15.4073H144.292V17.2763H149.315V20.6083H144.292V23.0493H150.499V26.5833H139.699L139.692 11.8723Z" fill="white"/>
<path d="M15.312 31.375C15.0668 31.3753 14.8229 31.3396 14.588 31.269L2.28801 27.552C1.7703 27.3982 1.31632 27.0809 0.994008 26.6475C0.671696 26.2142 0.498385 25.6881 0.500011 25.148V3.133C0.500276 2.46826 0.764321 1.8308 1.23417 1.36058C1.70402 0.890349 2.34128 0.625795 3.00601 0.625L27.616 0.625C28.2809 0.625794 28.9184 0.890284 29.3886 1.36045C29.8587 1.83062 30.1232 2.46808 30.124 3.133V25.148C30.1251 25.6868 29.9521 26.2114 29.6308 26.6439C29.3095 27.0764 28.8571 27.3935 28.341 27.548L16.041 31.265C15.8047 31.3371 15.5591 31.3738 15.312 31.374V31.375ZM5.87401 16.193V17.843C5.87454 18.4351 6.10997 19.0027 6.52863 19.4214C6.94728 19.84 7.51495 20.0755 8.10701 20.076H11.233V25.925C11.2338 26.517 11.4693 27.0845 11.8879 27.5031C12.3065 27.9217 12.874 28.1572 13.466 28.158H15.116V20.077H15.5V25.436H17.15C17.742 25.4352 18.3095 25.1997 18.7281 24.7811C19.1467 24.3625 19.3822 23.795 19.383 23.203V20.077H25.233C25.8249 20.0762 26.3923 19.8407 26.8107 19.422C27.2292 19.0034 27.4645 18.4359 27.465 17.844V16.194H19.389V15.805H24.748V14.155C24.7467 13.5635 24.5109 12.9966 24.0923 12.5786C23.6738 12.1605 23.1066 11.9255 22.515 11.925H19.389V6.073C19.3874 5.48059 19.1507 4.91304 18.7309 4.49508C18.311 4.07712 17.7424 3.84294 17.15 3.844H15.5V11.925H15.119V6.562H13.469C12.8768 6.562 12.3087 6.79706 11.8897 7.21556C11.4706 7.63405 11.2348 8.20176 11.234 8.794V11.925H5.39001C4.79812 11.9255 4.23061 12.1608 3.81198 12.5793C3.39335 12.9977 3.15781 13.5651 3.15701 14.157V15.807H11.234V16.195L5.87401 16.193ZM15.507 16.193H15.119V15.805H15.5V16.192L15.507 16.193Z" fill="white"/>
</svg>
