<svg width="194" height="40" viewBox="0 0 194 40" fill="none" xmlns="http://www.w3.org/2000/svg">
<path d="M76.5604 14.0336C77.7907 14.6774 78.8006 15.6703 79.462 16.8864C80.2021 18.2906 80.5671 19.8603 80.5221 21.4451V33.0271H76.4688V22.0442C76.5686 20.5773 76.094 19.1288 75.1443 18.002C74.1557 17.0966 72.8609 16.594 71.5169 16.594C70.1729 16.594 68.8781 17.0966 67.8895 18.002C66.9263 19.1224 66.4426 20.5734 66.5419 22.0442V33.0271H62.4887V22.0442C62.5884 20.5773 62.1138 19.1288 61.1642 18.002C60.6943 17.5275 60.1281 17.1582 59.5034 16.9185C58.8786 16.6789 58.2097 16.5745 57.5411 16.6122C56.8705 16.5766 56.1999 16.6822 55.5731 16.922C54.9463 17.1618 54.3775 17.5304 53.9038 18.0039C52.9475 19.1269 52.468 20.5759 52.5668 22.0442V33.0271H48.4805V13.3992H52.5668V15.646C53.25 14.8224 54.1227 14.1746 55.111 13.7577C56.1471 13.296 57.2701 13.0586 58.4054 13.0612C59.8692 13.0372 61.3155 13.3802 62.6109 14.0584C63.842 14.707 64.8444 15.7143 65.4837 16.9453C66.1031 15.7349 67.0831 14.7443 68.2898 14.1087C69.5389 13.4164 70.9463 13.0563 72.3762 13.0631C73.8301 13.0406 75.2673 13.3741 76.5611 14.0343L76.5604 14.0336Z" fill="#FEFDFF"/>
<path d="M103.55 17.881C104.32 16.4087 105.487 15.1789 106.92 14.3294C108.353 13.4799 109.996 13.0444 111.665 13.0717C112.981 13.0764 114.281 13.361 115.478 13.9064C116.635 14.3977 117.655 15.1618 118.449 16.1328V6.65186H122.571V33.0277H118.449V30.0658C117.722 31.0679 116.758 31.8772 115.643 32.4224C114.385 33.0566 112.989 33.3759 111.579 33.3526C109.914 33.3704 108.279 32.9188 106.862 32.0503C105.426 31.1691 104.262 29.9129 103.495 28.4187C102.649 26.7799 102.225 24.9585 102.26 23.117C102.239 21.2913 102.683 19.4901 103.55 17.881ZM117.634 19.672C117.122 18.7273 116.361 17.9393 115.432 17.3929C114.541 16.8768 113.527 16.6072 112.495 16.6122C111.463 16.605 110.448 16.8697 109.552 17.3793C108.623 17.9104 107.861 18.6876 107.351 19.6243C106.77 20.6932 106.481 21.8945 106.511 23.1089C106.483 24.3498 106.772 25.5775 107.351 26.6773C107.862 27.6433 108.631 28.451 109.573 29.0122C110.46 29.533 111.473 29.8077 112.503 29.8077C113.534 29.8077 114.546 29.533 115.434 29.0122C116.367 28.4614 117.129 27.6655 117.636 26.712C118.215 25.6226 118.504 24.4037 118.475 23.1715C118.499 21.953 118.21 20.7485 117.634 19.6726V19.672Z" fill="#FEFDFF"/>
<path d="M125.761 17.8593C126.537 16.3776 127.724 15.1487 129.181 14.3188C130.884 13.4296 132.793 13.0019 134.715 13.0789C136.637 13.1559 138.504 13.7347 140.13 14.7572C141.729 15.9427 142.853 17.6549 143.301 19.5883H138.889C138.572 18.6658 137.968 17.8676 137.165 17.3092C136.283 16.7362 135.245 16.4487 134.193 16.4862C133.436 16.4562 132.682 16.5996 131.99 16.9051C131.297 17.2107 130.684 17.6704 130.199 18.2487C129.128 19.6678 128.601 21.42 128.713 23.1907C128.603 24.9633 129.13 26.7169 130.199 28.1396C130.68 28.7245 131.291 29.1901 131.984 29.4999C132.678 29.8096 133.434 29.9549 134.193 29.9244C135.213 30.0102 136.232 29.7505 137.084 29.1876C137.937 28.6246 138.573 27.7915 138.889 26.8236H143.301C142.791 28.7242 141.656 30.4003 140.077 31.5845C138.366 32.7983 136.301 33.4177 134.201 33.347C132.444 33.3785 130.711 32.9403 129.183 32.0782C127.727 31.2358 126.541 30.0008 125.762 28.516C124.911 26.871 124.487 25.0404 124.528 23.1907C124.486 21.3384 124.91 19.505 125.762 17.8574L125.761 17.8593Z" fill="#FEFDFF"/>
<path d="M149.522 6.65186V33.0277H145.436V6.65186H149.522Z" fill="#FEFDFF"/>
<path d="M180.689 13.9777C181.941 13.3612 183.323 13.0506 184.719 13.0717C186.382 13.0475 188.018 13.4792 189.45 14.3195C190.871 15.1627 192.025 16.388 192.777 17.8543C193.612 19.4797 194.031 21.2851 193.997 23.1102C194.028 24.9482 193.609 26.7661 192.777 28.4075C192.02 29.9052 190.861 31.1649 189.428 32.0466C188.013 32.9142 186.38 33.3657 184.718 33.3489C183.309 33.3743 181.914 33.0685 180.646 32.4565C179.545 31.9253 178.584 31.1447 177.84 30.1774V33.0301H173.75V6.65186H177.836V16.3139C178.584 15.3184 179.563 14.5173 180.689 13.979L180.689 13.9777ZM189.002 19.61C188.488 18.6707 187.719 17.8939 186.783 17.3681C185.882 16.8592 184.862 16.5946 183.825 16.601C182.798 16.5988 181.789 16.8683 180.902 17.3818C179.962 17.9273 179.193 18.7216 178.68 19.6764C178.099 20.763 177.81 21.9807 177.841 23.2112C177.812 24.4433 178.1 25.6623 178.68 26.7517C179.048 27.4442 179.553 28.0553 180.165 28.548C180.776 29.0408 181.483 29.4048 182.24 29.6181C182.998 29.8314 183.791 29.8896 184.572 29.789C185.353 29.6885 186.105 29.4314 186.783 29.0333C187.725 28.472 188.493 27.6644 189.005 26.6984C189.582 25.5979 189.868 24.37 189.838 23.1294C189.875 21.903 189.586 20.6888 188.999 19.6094L189.002 19.61Z" fill="#FEFDFF"/>
<path d="M170.743 13.3992V33.0277H166.657V30.7083C165.983 31.538 165.118 32.1933 164.134 32.6184C163.091 33.0815 161.961 33.3189 160.819 33.3148C159.359 33.3435 157.914 33.0131 156.614 32.353C155.385 31.7072 154.375 30.7147 153.712 29.5003C152.973 28.0933 152.608 26.5216 152.652 24.9347V13.3992H156.705V24.3288C156.605 25.7981 157.079 27.2491 158.03 28.3784C158.501 28.8518 159.067 29.2205 159.692 29.4604C160.316 29.7003 160.985 29.8058 161.653 29.77C162.324 29.8043 162.994 29.6981 163.621 29.4584C164.247 29.2186 164.816 28.8507 165.291 28.3784C166.251 27.2539 166.731 25.8006 166.629 24.3288V13.3992H170.743Z" fill="#FEFDFF"/>
<path d="M85.8301 24.6916C85.8969 26.1357 86.5372 27.4945 87.6104 28.4696C88.6724 29.4086 90.0562 29.9067 91.4766 29.8612C92.4408 29.9258 93.402 29.6978 94.2331 29.2074C95.0642 28.7169 95.726 27.9871 96.131 27.1145H100.54C99.9612 28.8987 98.8271 30.4538 97.3015 31.5548C95.601 32.7466 93.5557 33.3536 91.4766 33.2838C89.7022 33.3123 87.9517 32.8746 86.4019 32.015C84.9198 31.1796 83.7052 29.9448 82.898 28.4528C82.0216 26.8253 81.5763 25.0027 81.604 23.1567C81.565 21.3047 81.9891 19.4721 82.8381 17.8234C83.6342 16.3289 84.8521 15.0983 86.342 14.2829C87.9183 13.4283 89.6917 12.9982 91.4866 13.0352C93.2229 13.0042 94.9376 13.4222 96.4628 14.2482C97.9028 15.0335 99.0852 16.2143 99.8688 17.6497C100.704 19.1976 101.124 20.933 101.089 22.6891C101.092 23.3585 101.046 24.0273 100.949 24.6897H87.7794V21.4029H96.8008C96.8134 20.7216 96.6746 20.046 96.3943 19.4242C96.1141 18.8025 95.6992 18.2499 95.1794 17.806C94.0923 16.8883 92.7004 16.4061 91.2752 16.4534C89.9431 16.4226 88.6495 16.8986 87.6584 17.7843C86.6281 18.7259 85.9891 20.0166 85.8668 21.4029C85.773 21.9861 85.719 22.5749 85.7053 23.1654C85.7029 23.6745 85.7446 24.1828 85.8301 24.6848V24.6916Z" fill="#FEFDFF"/>
<path d="M39.9008 14.8211V25.1777H14.7461V0.155029H25.155V14.8211H39.9008Z" fill="url(#paint0_linear_824_1701)"/>
<path d="M25.1547 14.821V39.8449H14.7471V25.1795H0V14.821H25.1547Z" fill="#7757FF"/>
<path d="M76.5604 14.0336C77.7907 14.6774 78.8006 15.6703 79.462 16.8864C80.2021 18.2906 80.5671 19.8603 80.5221 21.4451V33.0271H76.4688V22.0442C76.5686 20.5773 76.094 19.1288 75.1443 18.002C74.1557 17.0966 72.8609 16.594 71.5169 16.594C70.1729 16.594 68.8781 17.0966 67.8895 18.002C66.9263 19.1224 66.4426 20.5734 66.5419 22.0442V33.0271H62.4887V22.0442C62.5884 20.5773 62.1138 19.1288 61.1642 18.002C60.6943 17.5275 60.1281 17.1582 59.5034 16.9185C58.8786 16.6789 58.2097 16.5745 57.5411 16.6122C56.8705 16.5766 56.1999 16.6822 55.5731 16.922C54.9463 17.1618 54.3775 17.5304 53.9038 18.0039C52.9475 19.1269 52.468 20.5759 52.5668 22.0442V33.0271H48.4805V13.3992H52.5668V15.646C53.25 14.8224 54.1227 14.1746 55.111 13.7577C56.1471 13.296 57.2701 13.0586 58.4054 13.0612C59.8692 13.0372 61.3155 13.3802 62.6109 14.0584C63.842 14.707 64.8444 15.7143 65.4837 16.9453C66.1031 15.7349 67.0831 14.7443 68.2898 14.1087C69.5389 13.4164 70.9463 13.0563 72.3762 13.0631C73.8301 13.0406 75.2673 13.3741 76.5611 14.0343L76.5604 14.0336Z" fill="#FEFDFF"/>
<path d="M103.55 17.881C104.32 16.4087 105.487 15.1789 106.92 14.3294C108.353 13.4799 109.996 13.0444 111.665 13.0717C112.981 13.0764 114.281 13.361 115.478 13.9064C116.635 14.3977 117.655 15.1618 118.449 16.1328V6.65186H122.571V33.0277H118.449V30.0658C117.722 31.0679 116.758 31.8772 115.643 32.4224C114.385 33.0566 112.989 33.3759 111.579 33.3526C109.914 33.3704 108.279 32.9188 106.862 32.0503C105.426 31.1691 104.262 29.9129 103.495 28.4187C102.649 26.7799 102.225 24.9585 102.26 23.117C102.239 21.2913 102.683 19.4901 103.55 17.881ZM117.634 19.672C117.122 18.7273 116.361 17.9393 115.432 17.3929C114.541 16.8768 113.527 16.6072 112.495 16.6122C111.463 16.605 110.448 16.8697 109.552 17.3793C108.623 17.9104 107.861 18.6876 107.351 19.6243C106.77 20.6932 106.481 21.8945 106.511 23.1089C106.483 24.3498 106.772 25.5775 107.351 26.6773C107.862 27.6433 108.631 28.451 109.573 29.0122C110.46 29.533 111.473 29.8077 112.503 29.8077C113.534 29.8077 114.546 29.533 115.434 29.0122C116.367 28.4614 117.129 27.6655 117.636 26.712C118.215 25.6226 118.504 24.4037 118.475 23.1715C118.499 21.953 118.21 20.7485 117.634 19.6726V19.672Z" fill="#FEFDFF"/>
<path d="M125.761 17.8593C126.537 16.3776 127.724 15.1487 129.181 14.3188C130.884 13.4296 132.793 13.0019 134.715 13.0789C136.637 13.1559 138.504 13.7347 140.13 14.7572C141.729 15.9427 142.853 17.6549 143.301 19.5883H138.889C138.572 18.6658 137.968 17.8676 137.165 17.3092C136.283 16.7362 135.245 16.4487 134.193 16.4862C133.436 16.4562 132.682 16.5996 131.99 16.9051C131.297 17.2107 130.684 17.6704 130.199 18.2487C129.128 19.6678 128.601 21.42 128.713 23.1907C128.603 24.9633 129.13 26.7169 130.199 28.1396C130.68 28.7245 131.291 29.1901 131.984 29.4999C132.678 29.8096 133.434 29.9549 134.193 29.9244C135.213 30.0102 136.232 29.7505 137.084 29.1876C137.937 28.6246 138.573 27.7915 138.889 26.8236H143.301C142.791 28.7242 141.656 30.4003 140.077 31.5845C138.366 32.7983 136.301 33.4177 134.201 33.347C132.444 33.3785 130.711 32.9403 129.183 32.0782C127.727 31.2358 126.541 30.0008 125.762 28.516C124.911 26.871 124.487 25.0404 124.528 23.1907C124.486 21.3384 124.91 19.505 125.762 17.8574L125.761 17.8593Z" fill="#FEFDFF"/>
<path d="M149.522 6.65186V33.0277H145.436V6.65186H149.522Z" fill="#FEFDFF"/>
<path d="M180.689 13.9777C181.941 13.3612 183.323 13.0506 184.719 13.0717C186.382 13.0475 188.018 13.4792 189.45 14.3195C190.871 15.1627 192.025 16.388 192.777 17.8543C193.612 19.4797 194.031 21.2851 193.997 23.1102C194.028 24.9482 193.609 26.7661 192.777 28.4075C192.02 29.9052 190.861 31.1649 189.428 32.0466C188.013 32.9142 186.38 33.3657 184.718 33.3489C183.309 33.3743 181.914 33.0685 180.646 32.4565C179.545 31.9253 178.584 31.1447 177.84 30.1774V33.0301H173.75V6.65186H177.836V16.3139C178.584 15.3184 179.563 14.5173 180.689 13.979L180.689 13.9777ZM189.002 19.61C188.488 18.6707 187.719 17.8939 186.783 17.3681C185.882 16.8592 184.862 16.5946 183.825 16.601C182.798 16.5988 181.789 16.8683 180.902 17.3818C179.962 17.9273 179.193 18.7216 178.68 19.6764C178.099 20.763 177.81 21.9807 177.841 23.2112C177.812 24.4433 178.1 25.6623 178.68 26.7517C179.048 27.4442 179.553 28.0553 180.165 28.548C180.776 29.0408 181.483 29.4048 182.24 29.6181C182.998 29.8314 183.791 29.8896 184.572 29.789C185.353 29.6885 186.105 29.4314 186.783 29.0333C187.725 28.472 188.493 27.6644 189.005 26.6984C189.582 25.5979 189.868 24.37 189.838 23.1294C189.875 21.903 189.586 20.6888 188.999 19.6094L189.002 19.61Z" fill="#FEFDFF"/>
<path d="M170.743 13.3992V33.0277H166.657V30.7083C165.983 31.538 165.118 32.1933 164.134 32.6184C163.091 33.0815 161.961 33.3189 160.819 33.3148C159.359 33.3435 157.914 33.0131 156.614 32.353C155.385 31.7072 154.375 30.7147 153.712 29.5003C152.973 28.0933 152.608 26.5216 152.652 24.9347V13.3992H156.705V24.3288C156.605 25.7981 157.079 27.2491 158.03 28.3784C158.501 28.8518 159.067 29.2205 159.692 29.4604C160.316 29.7003 160.985 29.8058 161.653 29.77C162.324 29.8043 162.994 29.6981 163.621 29.4584C164.247 29.2186 164.816 28.8507 165.291 28.3784C166.251 27.2539 166.731 25.8006 166.629 24.3288V13.3992H170.743Z" fill="#FEFDFF"/>
<path d="M85.8301 24.6916C85.8969 26.1357 86.5372 27.4945 87.6104 28.4696C88.6724 29.4086 90.0562 29.9067 91.4766 29.8612C92.4408 29.9258 93.402 29.6978 94.2331 29.2074C95.0642 28.7169 95.726 27.9871 96.131 27.1145H100.54C99.9612 28.8987 98.8271 30.4538 97.3015 31.5548C95.601 32.7466 93.5557 33.3536 91.4766 33.2838C89.7022 33.3123 87.9517 32.8746 86.4019 32.015C84.9198 31.1796 83.7052 29.9448 82.898 28.4528C82.0216 26.8253 81.5763 25.0027 81.604 23.1567C81.565 21.3047 81.9891 19.4721 82.8381 17.8234C83.6342 16.3289 84.8521 15.0983 86.342 14.2829C87.9183 13.4283 89.6917 12.9982 91.4866 13.0352C93.2229 13.0042 94.9376 13.4222 96.4628 14.2482C97.9028 15.0335 99.0852 16.2143 99.8688 17.6497C100.704 19.1976 101.124 20.933 101.089 22.6891C101.092 23.3585 101.046 24.0273 100.949 24.6897H87.7794V21.4029H96.8008C96.8134 20.7216 96.6746 20.046 96.3943 19.4242C96.1141 18.8025 95.6992 18.2499 95.1794 17.806C94.0923 16.8883 92.7004 16.4061 91.2752 16.4534C89.9431 16.4226 88.6495 16.8986 87.6584 17.7843C86.6281 18.7259 85.9891 20.0166 85.8668 21.4029C85.773 21.9861 85.719 22.5749 85.7053 23.1654C85.7029 23.6745 85.7446 24.1828 85.8301 24.6848V24.6916Z" fill="#FEFDFF"/>
<defs>
<linearGradient id="paint0_linear_824_1701" x1="39.9008" y1="3.70824" x2="14.8585" y2="25.308" gradientUnits="userSpaceOnUse">
<stop stop-color="#6F4DFF"/>
<stop offset="1" stop-color="#6F4DFF" stop-opacity="0"/>
</linearGradient>
</defs>
</svg>
